<svg id="visual" viewBox="0 0 2560 5000" width="2560" height="5000" xmlns="http://www.w3.org/2000/svg" xmlns:xlink="http://www.w3.org/1999/xlink" version="1.1"><rect x="0" y="0" width="2560" height="5000" fill="#f2f2f2"></rect><path d="M0 3276L61 3209.2C122 3142.3 244 3008.7 365.8 3001.7C487.7 2994.7 609.3 3114.3 731.2 3207.3C853 3300.3 975 3366.7 1097 3372.7C1219 3378.7 1341 3324.3 1463 3273.3C1585 3222.3 1707 3174.7 1828.8 3117.7C1950.7 3060.7 2072.3 2994.3 2194.2 2975.3C2316 2956.3 2438 2984.7 2499 2998.8L2560 3013L2560 5001L2499 5001C2438 5001 2316 5001 2194.2 5001C2072.3 5001 1950.7 5001 1828.8 5001C1707 5001 1585 5001 1463 5001C1341 5001 1219 5001 1097 5001C975 5001 853 5001 731.2 5001C609.3 5001 487.7 5001 365.8 5001C244 5001 122 5001 61 5001L0 5001Z" fill="#c62368"></path><path d="M0 3639L61 3612.8C122 3586.7 244 3534.3 365.8 3510.8C487.7 3487.3 609.3 3492.7 731.2 3476.5C853 3460.3 975 3422.7 1097 3408.8C1219 3395 1341 3405 1463 3478.7C1585 3552.3 1707 3689.7 1828.8 3662.5C1950.7 3635.3 2072.3 3443.7 2194.2 3368.2C2316 3292.7 2438 3333.3 2499 3353.7L2560 3374L2560 5001L2499 5001C2438 5001 2316 5001 2194.2 5001C2072.3 5001 1950.7 5001 1828.8 5001C1707 5001 1585 5001 1463 5001C1341 5001 1219 5001 1097 5001C975 5001 853 5001 731.2 5001C609.3 5001 487.7 5001 365.8 5001C244 5001 122 5001 61 5001L0 5001Z" fill="#d53867"></path><path d="M0 4198L61 4172.8C122 4147.7 244 4097.3 365.8 4032.7C487.7 3968 609.3 3889 731.2 3853.8C853 3818.7 975 3827.3 1097 3879C1219 3930.7 1341 4025.3 1463 4061.2C1585 4097 1707 4074 1828.8 4060.7C1950.7 4047.3 2072.3 4043.7 2194.2 4066.2C2316 4088.7 2438 4137.3 2499 4161.7L2560 4186L2560 5001L2499 5001C2438 5001 2316 5001 2194.2 5001C2072.3 5001 1950.7 5001 1828.8 5001C1707 5001 1585 5001 1463 5001C1341 5001 1219 5001 1097 5001C975 5001 853 5001 731.2 5001C609.3 5001 487.7 5001 365.8 5001C244 5001 122 5001 61 5001L0 5001Z" fill="#e34c67"></path><path d="M0 4152L61 4170C122 4188 244 4224 365.8 4257.5C487.7 4291 609.3 4322 731.2 4287.2C853 4252.3 975 4151.7 1097 4109C1219 4066.3 1341 4081.7 1463 4111.7C1585 4141.7 1707 4186.3 1828.8 4247C1950.7 4307.7 2072.3 4384.3 2194.2 4391.8C2316 4399.3 2438 4337.7 2499 4306.8L2560 4276L2560 5001L2499 5001C2438 5001 2316 5001 2194.2 5001C2072.3 5001 1950.7 5001 1828.8 5001C1707 5001 1585 5001 1463 5001C1341 5001 1219 5001 1097 5001C975 5001 853 5001 731.2 5001C609.3 5001 487.7 5001 365.8 5001C244 5001 122 5001 61 5001L0 5001Z" fill="#ef5f67"></path><path d="M0 4758L61 4734C122 4710 244 4662 365.8 4605.3C487.7 4548.7 609.3 4483.3 731.2 4490.7C853 4498 975 4578 1097 4619.3C1219 4660.7 1341 4663.3 1463 4623.7C1585 4584 1707 4502 1828.8 4516.7C1950.7 4531.3 2072.3 4642.7 2194.2 4662.3C2316 4682 2438 4610 2499 4574L2560 4538L2560 5001L2499 5001C2438 5001 2316 5001 2194.2 5001C2072.3 5001 1950.7 5001 1828.8 5001C1707 5001 1585 5001 1463 5001C1341 5001 1219 5001 1097 5001C975 5001 853 5001 731.2 5001C609.3 5001 487.7 5001 365.8 5001C244 5001 122 5001 61 5001L0 5001Z" fill="#fa7268"></path></svg>