<svg id="visual" viewBox="0 0 600 900" width="600" height="900" xmlns="http://www.w3.org/2000/svg" xmlns:xlink="http://www.w3.org/1999/xlink" version="1.1"><path d="M0 100L33.3 89.5C66.7 79 133.3 58 200 47.5C266.7 37 333.3 37 400 41.5C466.7 46 533.3 55 566.7 59.5L600 64L600 0L566.7 0C533.3 0 466.7 0 400 0C333.3 0 266.7 0 200 0C133.3 0 66.7 0 33.3 0L0 0Z" fill="#f2f2f2"></path><path d="M0 145L33.3 131.5C66.7 118 133.3 91 200 80.5C266.7 70 333.3 76 400 83.5C466.7 91 533.3 100 566.7 104.5L600 109L600 62L566.7 57.5C533.3 53 466.7 44 400 39.5C333.3 35 266.7 35 200 45.5C133.3 56 66.7 77 33.3 87.5L0 98Z" fill="#f0d9e8"></path><path d="M0 352L33.3 337C66.7 322 133.3 292 200 274C266.7 256 333.3 250 400 253C466.7 256 533.3 268 566.7 274L600 280L600 107L566.7 102.5C533.3 98 466.7 89 400 81.5C333.3 74 266.7 68 200 78.5C133.3 89 66.7 116 33.3 129.5L0 143Z" fill="#edc0df"></path><path d="M0 379L33.3 362.5C66.7 346 133.3 313 200 295C266.7 277 333.3 274 400 277C466.7 280 533.3 289 566.7 293.5L600 298L600 278L566.7 272C533.3 266 466.7 254 400 251C333.3 248 266.7 254 200 272C133.3 290 66.7 320 33.3 335L0 350Z" fill="#e8a7d5"></path><path d="M0 415L33.3 401.5C66.7 388 133.3 361 200 344.5C266.7 328 333.3 322 400 326.5C466.7 331 533.3 346 566.7 353.5L600 361L600 296L566.7 291.5C533.3 287 466.7 278 400 275C333.3 272 266.7 275 200 293C133.3 311 66.7 344 33.3 360.5L0 377Z" fill="#e38dcb"></path><path d="M0 478L33.3 464.5C66.7 451 133.3 424 200 401.5C266.7 379 333.3 361 400 368.5C466.7 376 533.3 409 566.7 425.5L600 442L600 359L566.7 351.5C533.3 344 466.7 329 400 324.5C333.3 320 266.7 326 200 342.5C133.3 359 66.7 386 33.3 399.5L0 413Z" fill="#e182c7"></path><path d="M0 559L33.3 551.5C66.7 544 133.3 529 200 505C266.7 481 333.3 448 400 461.5C466.7 475 533.3 535 566.7 565L600 595L600 440L566.7 423.5C533.3 407 466.7 374 400 366.5C333.3 359 266.7 377 200 399.5C133.3 422 66.7 449 33.3 462.5L0 476Z" fill="#e182c7"></path><path d="M0 586L33.3 580C66.7 574 133.3 562 200 536.5C266.7 511 333.3 472 400 484C466.7 496 533.3 559 566.7 590.5L600 622L600 593L566.7 563C533.3 533 466.7 473 400 459.5C333.3 446 266.7 479 200 503C133.3 527 66.7 542 33.3 549.5L0 557Z" fill="#e38dcb"></path><path d="M0 658L33.3 653.5C66.7 649 133.3 640 200 613C266.7 586 333.3 541 400 556C466.7 571 533.3 646 566.7 683.5L600 721L600 620L566.7 588.5C533.3 557 466.7 494 400 482C333.3 470 266.7 509 200 534.5C133.3 560 66.7 572 33.3 578L0 584Z" fill="#e8a7d5"></path><path d="M0 703L33.3 695.5C66.7 688 133.3 673 200 646C266.7 619 333.3 580 400 593.5C466.7 607 533.3 673 566.7 706L600 739L600 719L566.7 681.5C533.3 644 466.7 569 400 554C333.3 539 266.7 584 200 611C133.3 638 66.7 647 33.3 651.5L0 656Z" fill="#edc0df"></path><path d="M0 838L33.3 844C66.7 850 133.3 862 200 865C266.7 868 333.3 862 400 860.5C466.7 859 533.3 862 566.7 863.5L600 865L600 737L566.7 704C533.3 671 466.7 605 400 591.5C333.3 578 266.7 617 200 644C133.3 671 66.7 686 33.3 693.5L0 701Z" fill="#f0d9e8"></path><path d="M0 901L33.3 901C66.7 901 133.3 901 200 901C266.7 901 333.3 901 400 901C466.7 901 533.3 901 566.7 901L600 901L600 863L566.7 861.5C533.3 860 466.7 857 400 858.5C333.3 860 266.7 866 200 863C133.3 860 66.7 848 33.3 842L0 836Z" fill="#f2f2f2"></path></svg>